<svg xmlns="http://www.w3.org/2000/svg" version="1.1" xmlns:xlink="http://www.w3.org/1999/xlink" xmlns:svgjs="http://svgjs.dev/svgjs" width="1500" height="261" viewBox="0 0 1500 261"><g transform="matrix(1,0,0,1,-0.9090909090909918,-0.4045746691871557)"><svg viewBox="0 0 396 69" data-background-color="#e0e9ec" preserveAspectRatio="xMidYMid meet" height="261" width="1500" xmlns="http://www.w3.org/2000/svg" xmlns:xlink="http://www.w3.org/1999/xlink"><g id="tight-bounds" transform="matrix(1,0,0,1,0.2400000000000091,0.10695652173913572)"><svg viewBox="0 0 395.52 68.78608695652173" height="68.78608695652173" width="395.52"><g><svg viewBox="0 0 395.52 68.78608695652173" height="68.78608695652173" width="395.52"><g><svg viewBox="0 0 395.52 68.78608695652173" height="68.78608695652173" width="395.52"><g id="textblocktransform"><svg viewBox="0 0 395.52 68.78608695652173" height="68.78608695652173" width="395.52" id="textblock"><g><svg viewBox="0 0 395.52 68.78608695652173" height="68.78608695652173" width="395.52"><g transform="matrix(1,0,0,1,0,0)"><svg width="395.52" viewBox="2.9 -36 206.98999999999998 36" height="68.78608695652173" data-palette-color="#0c6cc1"><path d="M38-36L36.6-28.2 24.3-28.2 19.35 0 10.3 0 15.25-28.2 2.9-28.2 4.3-36 38-36ZM62.25-7.8L60.85 0 35.75 0 42.1-36 67.2-36 65.8-28.2 49.7-28.2 48.55-21.45 61.85-21.45 60.45-13.65 47.15-13.65 46.15-7.8 62.25-7.8ZM72.95-36L86.95-36Q93.5-36 96.3-32.7L96.3-32.7Q98.35-30.2 98.35-26.45L98.35-26.45Q98.35-25.1 98.1-23.6L98.1-23.6 96.15-12.45Q95.15-6.8 91.25-3.4 87.35 0 81.15 0L81.15 0 66.6 0 72.95-36ZM83.8-28.2L83.8-28.2 80.55-28.2 77-7.8 81.75-7.8Q84.1-7.8 85.42-9.08 86.75-10.35 87.25-13.25L87.25-13.25 88.7-21.45Q88.9-22.55 88.9-23.45L88.9-23.45Q88.9-28.2 83.8-28.2ZM126.04-21L124.69-13.2 111.39-13.2 109.09 0 100.04 0 106.39-36 131.49-36 130.09-28.2 113.99-28.2 112.74-21 126.04-21ZM154.34-7.8L152.94 0 130.14 0 136.49-36 145.49-36 140.54-7.8 154.34-7.8ZM163.29-36L172.29-36 165.99 0 156.94 0 163.29-36ZM199.64-36L209.89-36 195.79-17.85 203.54 0 193.29 0 188.39-11.5 180.14 0 169.89 0 183.14-17.85 176.24-36 186.49-36 190.64-24.3 199.64-36Z" opacity="1" transform="matrix(1,0,0,1,0,0)" fill="#0c6cc1" class="wordmark-text-0" data-fill-palette-color="primary" id="text-0"></path></svg></g></svg></g></svg></g></svg></g><g></g></svg></g><defs></defs></svg><rect width="395.52" height="68.78608695652173" fill="none" stroke="none" visibility="hidden"></rect></g></svg></g></svg>